<?xml version="1.0" encoding="UTF-8"?>
<svg width="32px" height="32px" viewBox="0 0 32 32" version="1.1" xmlns="http://www.w3.org/2000/svg" xmlns:xlink="http://www.w3.org/1999/xlink">
    <!-- Generator: Sketch 49.1 (51147) - http://www.bohemiancoding.com/sketch -->
    <title>bch</title>
    <desc>Created with Sketch.</desc>
    <defs></defs>
    <g id="bch" stroke="none" stroke-width="1" fill="none" fill-rule="evenodd">
        <g transform="translate(0.000000, 6.000000)" fill="#DC9829" fill-rule="nonzero" id="Shape">
            <path d="M16.0234009,0.0704845815 C15.2104317,0.0690748899 14.3840705,0.169162996 13.5599648,0.379348018 L13.5599648,0.37892511 C8.28630837,1.72532159 5.10322467,7.08722467 6.4507489,12.3552423 C7.7984141,17.6232599 13.1660969,20.8028194 18.4400352,19.4565639 C23.7139736,18.1105903 26.8967753,12.7486872 25.5493921,7.4806696 C24.4121938,3.03591189 20.4133216,0.077814978 16.0234009,0.0704845815 Z M0,0.115594714 L0,19.8061674 L9.09688106,19.8061674 C5.99555947,17.6322819 3.968,14.0330573 3.968,9.96088106 C3.968,5.88884581 5.9954185,2.28962115 9.09688106,0.115594714 L0,0.115594714 Z M22.9031189,0.115594714 C26.0044405,2.28962115 28.032,5.88884581 28.032,9.96088106 C28.032,14.0330573 26.0045815,17.6322819 22.9031189,19.8061674 L32,19.8061674 L32,0.115594714 L22.9031189,0.115594714 Z M15.7373744,3.36310132 L16.2258326,5.27252863 C17.1181674,5.10266079 17.814978,5.1030837 18.4936035,5.37881938 C19.3709956,5.73490749 19.5742731,6.69096035 19.6157181,6.92074009 C19.6567401,7.15051982 19.6688634,7.61064317 19.5422731,7.94135683 C19.4159648,8.27263436 19.003207,8.67707489 19.003207,8.67707489 C19.003207,8.67707489 19.6064141,8.65184141 20.0862731,8.85187665 C20.5651454,9.05205286 20.9996123,9.50935683 21.1827313,10.294837 C21.3664141,11.0798943 21.4046167,11.8963877 20.8212863,12.5727577 C20.2519119,13.2323524 19.5366344,13.5171101 19.2004229,13.6510308 L19.1751894,13.6608987 C19.0150485,13.7250396 18.7370573,13.8206167 18.4369339,13.9160529 L18.9259559,15.8282996 L17.7475947,16.1292687 L17.266185,14.2478943 L16.3686344,14.4769692 L16.8499031,16.3583436 L15.6715419,16.6593128 L15.1902731,14.7776564 L12.8717533,15.369304 L12.7524934,13.8934978 L13.4573392,13.7137621 C13.6941674,13.6530044 13.787489,13.6060617 13.8626256,13.4875066 C13.9377621,13.3685286 13.9232423,13.2198062 13.8936388,13.1039295 L12.6478943,8.23302203 C12.5697974,7.92782379 12.5238414,7.85170044 12.3434009,7.7307489 C12.1626784,7.60965639 11.8270308,7.67309251 11.6409515,7.72102203 L10.9597885,7.89455507 L10.646978,6.67207048 L12.9656388,6.08042291 L12.4825374,4.1938326 L13.6610396,3.89314537 L14.1435771,5.78001762 L15.0411278,5.55094273 L14.5584493,3.66407048 L15.7373744,3.36310132 Z M16.2541674,6.75298678 C15.8361938,6.75129515 15.5450925,6.816 15.2208634,6.89367401 C14.8505374,6.98248458 14.4842996,7.11118943 14.4842996,7.11118943 L15.0652335,9.38304846 C15.0652335,9.38304846 15.62037,9.25885463 16.045674,9.13268722 C16.4711189,9.00637885 16.9030485,8.79125991 17.1866784,8.52539207 C17.4707313,8.25938326 17.5847753,7.92542731 17.4642467,7.49913656 C17.3430132,7.07284581 16.9642291,6.78301322 16.4416564,6.7579207 C16.3792024,6.75493982 16.3166918,6.7532948 16.2541674,6.75298678 Z M17.5124581,10.1365286 C17.239225,10.1385894 16.9667073,10.1647703 16.6980793,10.2147665 C16.1041762,10.3252863 15.3650749,10.5547841 15.3650749,10.5547841 L16.0109956,13.0795419 C16.0109956,13.0795419 16.7974626,12.8968458 17.3105903,12.7245815 C17.823859,12.5525991 18.3296564,12.2829251 18.5616916,12.0654097 C18.793304,11.8480352 19.0591718,11.533815 18.9114361,10.9564053 C18.7637004,10.3787137 18.3164053,10.235207 18.0680176,10.1813568 C17.9438238,10.1544317 17.7497093,10.1351189 17.5124581,10.1365286 Z"></path>
        </g>
    </g>
</svg>