<?xml version="1.0" encoding="UTF-8"?>
<svg width="32px" height="32px" viewBox="0 0 32 32" version="1.1" xmlns="http://www.w3.org/2000/svg" xmlns:xlink="http://www.w3.org/1999/xlink">
    <!-- Generator: Sketch 49.1 (51147) - http://www.bohemiancoding.com/sketch -->
    <title>btc</title>
    <desc>Created with Sketch.</desc>
    <defs></defs>
    <g id="btc" stroke="none" stroke-width="1" fill="none" fill-rule="evenodd">
        <g transform="translate(4.000000, 0.000000)" fill="#F7AC31" fill-rule="nonzero" id="Shape">
            <path d="M22.1153141,19.9236346 C22.1153141,15.20032 18.8154642,14.229776 18.8154642,14.229776 C18.8154642,14.229776 21.2094729,13.4533407 21.2094729,10.4770055 C21.2094729,7.50067032 18.8801671,5.94779976 16.6802672,5.94779976 C16.6155642,5.94779976 16.4861584,5.94779976 16.4214554,5.94779976 L16.4214554,2.06562344 L13.8333379,2.06562344 L13.8333379,5.94779976 C12.9921997,5.94779976 12.1510615,5.94779976 11.2452203,5.94779976 L11.2452203,2.06562344 L8.65710276,2.06562344 L8.65710276,5.94779976 C7.94537042,5.94779976 2.83383823,5.94779976 2.83383823,5.94779976 L2.83383823,9.18294671 L5.42195581,9.18294671 L5.42195581,22.7705639 L2.83383823,22.7705639 L2.83383823,26.0057109 L8.65710276,26.0057109 L8.65710276,29.8878872 L11.2452203,29.8878872 L11.2452203,26.0057109 L13.8333379,26.0057109 L13.8333379,29.8878872 L16.4214554,29.8878872 L16.4214554,25.9410079 C18.2978407,25.876305 22.1153141,24.5175433 22.1153141,19.9236346 Z M8.59239984,9.18294671 L15.3862084,9.18294671 C15.839129,9.18294671 17.4567025,8.98883791 17.4567025,11.5769555 C17.4567025,13.9709642 15.3215055,13.7121524 15.3215055,13.7121524 L8.59239984,13.7121524 L8.59239984,9.18294671 Z M15.774426,22.1235345 L8.59239984,22.1235345 L8.59239984,17.5943288 L15.774426,17.5943288 C16.2920496,17.5943288 17.9743259,17.2708141 17.9743259,19.9883375 C18.0390289,22.5764551 15.774426,22.1235345 15.774426,22.1235345 Z" transform="translate(12.474576, 15.976755) rotate(11.000000) translate(-12.474576, -15.976755) "></path>
        </g>
    </g>
</svg>