<?xml version="1.0" encoding="UTF-8"?>
<svg width="32px" height="32px" viewBox="0 0 32 32" version="1.1" xmlns="http://www.w3.org/2000/svg" xmlns:xlink="http://www.w3.org/1999/xlink">
    <!-- Generator: Sketch 49.1 (51147) - http://www.bohemiancoding.com/sketch -->
    <title>dash</title>
    <desc>Created with Sketch.</desc>
    <defs></defs>
    <g id="dash" stroke="none" stroke-width="1" fill="none" fill-rule="evenodd">
        <g transform="translate(0.000000, 7.000000)" fill="#1E75BB" fill-rule="nonzero" id="Shape">
            <path d="M31.9568231,2.98450475 C32.0614852,3.62992095 31.9742668,4.2927808 31.7126116,4.88586595 L28.8344043,13.9391363 C28.5727491,14.5671088 28.2587628,15.1601939 27.8750018,15.7358354 C27.4214661,16.3114768 26.8981557,16.8347873 26.3225142,17.288323 C25.7294291,17.776746 25.0316819,18.1256196 24.421153,18.4744933 C23.8117128,18.6999337 23.1693668,18.8236885 22.5197918,18.8408106 L0.71519091,18.8408106 L2.2676785,14.1833478 L21.9267067,14.1833478 L25.0316819,4.6590981 L5.37265365,4.6590981 L6.92514125,0.00163535193 L28.6250801,0.00163535193 C29.2007216,-0.0158083481 29.776363,0.106297452 30.2996734,0.367952652 C30.8055402,0.559833152 31.2416322,0.943594102 31.4858437,1.43201715 C31.7649426,1.90299655 31.9219358,2.44375065 31.9568231,2.98450475 Z M13.1176479,7.25820655 L11.6872661,11.5667957 L3.55271368e-15,11.5667957 L1.55248759,7.25820655 L13.1176479,7.25820655 Z"></path>
        </g>
    </g>
</svg>