<?xml version="1.0" encoding="UTF-8"?>
<svg width="32px" height="32px" viewBox="0 0 32 32" version="1.1" xmlns="http://www.w3.org/2000/svg" xmlns:xlink="http://www.w3.org/1999/xlink">
    <!-- Generator: Sketch 49.1 (51147) - http://www.bohemiancoding.com/sketch -->
    <title>eth</title>
    <desc>Created with Sketch.</desc>
    <defs>
        <path d="M15.1220687,13.1621072 C15.1284601,13.1097637 15.118778,13.0549887 15.090862,13.0055471 L7.83497301,0.154761906 C7.81207876,0.11421424 7.77855003,0.0806855203 7.73800237,0.0577912494 C7.61499218,-0.0116635055 7.45896855,0.0317517361 7.38951378,0.154761906 L0.133624807,13.0055471 C0.106534879,13.0535256 0.0959759947,13.1083391 0.10239801,13.1618177 C0.10020922,13.2515937 0.145449927,13.3398511 0.228314575,13.3886674 L7.48241448,17.6621186 C7.56253265,17.7093169 7.66195419,17.7093169 7.7420723,17.6621186 L14.9961722,13.3886674 C15.0286107,13.3695576 15.0564306,13.3435225 15.0776461,13.3124204 C15.1090245,13.2664196 15.1233614,13.2138251 15.1220687,13.1621072 Z" id="path-1"></path>
        <path d="M15.1220687,13.1621072 C15.1284601,13.1097637 15.118778,13.0549887 15.090862,13.0055471 L7.83497301,0.154761906 C7.81207876,0.11421424 7.77855003,0.0806855203 7.73800237,0.0577912494 C7.61499218,-0.0116635055 7.45896855,0.0317517361 7.38951378,0.154761906 L0.133624807,13.0055471 C0.106534879,13.0535256 0.0959759947,13.1083391 0.10239801,13.1618177 C0.10020922,13.2515937 0.145449927,13.3398511 0.228314575,13.3886674 L7.48241448,17.6621186 C7.56253265,17.7093169 7.66195419,17.7093169 7.7420723,17.6621186 L14.9961722,13.3886674 C15.0286107,13.3695576 15.0564306,13.3435225 15.0776461,13.3124204 C15.1090245,13.2664196 15.1233614,13.2138251 15.1220687,13.1621072 Z" id="path-3"></path>
        <path d="M15.1220687,13.1621072 C15.1284601,13.1097637 15.118778,13.0549887 15.090862,13.0055471 L7.83497301,0.154761906 C7.81207876,0.11421424 7.77855003,0.0806855203 7.73800237,0.0577912494 C7.61499218,-0.0116635055 7.45896855,0.0317517361 7.38951378,0.154761906 L0.133624807,13.0055471 C0.106534879,13.0535256 0.0959759947,13.1083391 0.10239801,13.1618177 C0.10020922,13.2515937 0.145449927,13.3398511 0.228314575,13.3886674 L7.48241448,17.6621186 C7.56253265,17.7093169 7.66195419,17.7093169 7.7420723,17.6621186 L14.9961722,13.3886674 C15.0286107,13.3695576 15.0564306,13.3435225 15.0776461,13.3124204 C15.1090245,13.2664196 15.1233614,13.2138251 15.1220687,13.1621072 Z" id="path-5"></path>
        <path d="M7.39851312,4.10289302 L14.2511277,0.127125812 C14.3733156,0.0562345135 14.5298372,0.0978186458 14.6007285,0.220006568 C14.6506046,0.305972696 14.6461672,0.413047821 14.5893491,0.494592348 L7.60837456,10.5136057 C7.52761633,10.629509 7.36819065,10.6579997 7.25228736,10.5772414 C7.22748121,10.5599572 7.20593589,10.5384118 7.18865163,10.5136057 L0.207677048,0.494592348 C0.126918806,0.378689062 0.155409493,0.219263398 0.271312779,0.138505157 C0.352857305,0.0816871594 0.45993243,0.077249769 0.545898559,0.127125812 L7.39851312,4.10289302 Z" id="path-7"></path>
    </defs>
    <g id="eth" stroke="none" stroke-width="1" fill="none" fill-rule="evenodd">
        <g transform="translate(8.000000, 2.000000)">
            <g id="Group-2" transform="translate(0.895955, 0.422477)">
                <g id="Triangle">
                    <g id="Combined-Shape" fill="#3E4142" fill-rule="nonzero">
                        <path d="M15.1220687,13.1621072 C15.1284601,13.1097637 15.118778,13.0549887 15.090862,13.0055471 L7.83497301,0.154761906 C7.81207876,0.11421424 7.77855003,0.0806855203 7.73800237,0.0577912494 C7.61499218,-0.0116635055 7.45896855,0.0317517361 7.38951378,0.154761906 L0.133624807,13.0055471 C0.106534879,13.0535256 0.0959759947,13.1083391 0.10239801,13.1618177 C0.10020922,13.2515937 0.145449927,13.3398511 0.228314575,13.3886674 L7.48241448,17.6621186 C7.56253265,17.7093169 7.66195419,17.7093169 7.7420723,17.6621186 L14.9961722,13.3886674 C15.0286107,13.3695576 15.0564306,13.3435225 15.0776461,13.3124204 C15.1090245,13.2664196 15.1233614,13.2138251 15.1220687,13.1621072 Z" id="path-1"></path>
                    </g>
                    <g id="Mask-Clipped">
                        <mask id="mask-2" fill="white">
                            <use xlink:href="#path-1"></use>
                        </mask>
                        <g id="path-1"></g>
                        <path d="M7.61224339,7.91045762 L15.0104784,12.9569825 C15.1271777,13.0365861 15.1572497,13.195721 15.0776461,13.3124204 C15.0564306,13.3435225 15.0286107,13.3695576 14.9961722,13.3886674 L7.7420723,17.6621186 C7.66195419,17.7093169 7.56253265,17.7093169 7.48241448,17.6621186 L0.228314575,13.3886674 C0.106600928,13.3169648 0.0660589101,13.1601701 0.137761442,13.0384564 C0.15687122,13.0060179 0.18290636,12.978198 0.214008443,12.9569825 L7.61224339,7.91045762 Z" id="Mask" fill="#2E3031" fill-rule="nonzero" mask="url(#mask-2)"></path>
                    </g>
                    <g id="Clipped">
                        <mask id="mask-4" fill="white">
                            <use xlink:href="#path-3"></use>
                        </mask>
                        <g id="path-1"></g>
                        <polygon id="Shape" fill="#545859" fill-rule="nonzero" mask="url(#mask-4)" points="7.61224339 -0.239710837 7.61224339 10.307566 -0.237882606 13.6635177"></polygon>
                    </g>
                    <g id="Clipped">
                        <mask id="mask-6" fill="white">
                            <use xlink:href="#path-5"></use>
                        </mask>
                        <g id="path-1"></g>
                        <polygon id="Shape" fill="#434647" fill-rule="nonzero" mask="url(#mask-6)" points="7.61224339 7.91045762 7.61224339 17.738602 -0.237882606 13.184096"></polygon>
                    </g>
                </g>
            </g>
            <g id="Triangle" transform="translate(1.109686, 16.695005)">
                <g id="Mask" fill="#2E3031" fill-rule="nonzero">
                    <path d="M7.39851312,4.10289302 L14.2511277,0.127125812 C14.3733156,0.0562345135 14.5298372,0.0978186458 14.6007285,0.220006568 C14.6506046,0.305972696 14.6461672,0.413047821 14.5893491,0.494592348 L7.60837456,10.5136057 C7.52761633,10.629509 7.36819065,10.6579997 7.25228736,10.5772414 C7.22748121,10.5599572 7.20593589,10.5384118 7.18865163,10.5136057 L0.207677048,0.494592348 C0.126918806,0.378689062 0.155409493,0.219263398 0.271312779,0.138505157 C0.352857305,0.0816871594 0.45993243,0.077249769 0.545898559,0.127125812 L7.39851312,4.10289302 Z" id="path-3"></path>
                </g>
                <g id="Clipped">
                    <mask id="mask-8" fill="white">
                        <use xlink:href="#path-7"></use>
                    </mask>
                    <g id="path-3"></g>
                    <polygon id="Shape" fill="#434647" fill-rule="nonzero" mask="url(#mask-8)" points="7.39851312 4.10289302 7.39851312 10.8147964 -0.451612903 -0.451612903"></polygon>
                </g>
            </g>
        </g>
    </g>
</svg>