<?xml version="1.0" encoding="UTF-8"?>
<svg width="32px" height="32px" viewBox="0 0 32 32" version="1.1" xmlns="http://www.w3.org/2000/svg" xmlns:xlink="http://www.w3.org/1999/xlink">
    <!-- Generator: Sketch 49.1 (51147) - http://www.bohemiancoding.com/sketch -->
    <title>ltc</title>
    <desc>Created with Sketch.</desc>
    <defs></defs>
    <g id="ltc" stroke="none" stroke-width="1" fill="none" fill-rule="evenodd">
        <g transform="translate(5.000000, 5.000000)" fill-rule="nonzero" id="Shape">
            <path d="M21.9403142,11.0001994 C21.9403142,17.0433535 17.0414924,21.9423082 10.9984048,21.9423082 C4.95525076,21.9423082 0.0563625378,17.0433535 0.0563625378,11.0001994 C0.0563625378,4.95711178 4.95525076,0.058223565 10.9984048,0.058223565 C17.041426,0.058223565 21.9403142,4.95711178 21.9403142,11.0001994" fill="#BEBEBE"></path>
            <path d="M19.6172205,11.0003323 C19.6172205,15.7601088 15.7584471,19.6192145 10.9984048,19.6192145 C6.238429,19.6192145 2.37938973,15.7601088 2.37938973,11.0003323 C2.37938973,6.2401571 6.238429,2.38131722 10.9984048,2.38131722 C15.7585136,2.38131722 19.6172205,6.24009063 19.6172205,11.0003323" fill="#BEBEBE"></path>
            <polyline fill="#FFFFFF" points="10.3588761 13.9232749 11.0695891 11.2471178 12.7522236 10.6323807 13.1707553 9.05961329 13.1564653 9.02059819 11.5001511 9.62569789 12.6935347 5.1321148 9.3090574 5.1321148 7.74838671 10.9963444 6.44533535 11.4723686 6.01477341 13.0937885 7.31682779 12.6181631 6.39701511 16.0742236 15.4044532 16.0742236 15.9819033 13.9232749 10.3588761 13.9232749"></polyline>
        </g>
    </g>
</svg>